# xmcd CD database file
#
# Track frame offsets:
#	150
#	15100
#	38893
#	68269
#	85932
#	102605
#	119571
#	135283
#	151890
#	170340
#	185168
#	202120
#
# Disc length: 2985 seconds
#
# Revision: 0
# Processed by: cddbd v1.5.1PL0 Copyright (c) Steve Scherf et al.
# Submitted via: CDex 1.51
#
DISCID=970ba70c
DTITLE=Dean Haitani - Talk to Me
DYEAR=2002
DGENRE=New Age
TTITLE0=My Old Lady
TTITLE1=Sea Runs Dry
TTITLE2=Don't Let the Devil Ride
TTITLE3=Aways a Woman
TTITLE4=Getting Busy
TTITLE5=Talk to Me
TTITLE6=I Can
TTITLE7=Dissin Me
TTITLE8=Alice in Wonderland
TTITLE9=Shepherd's Warning
TTITLE10=All Roads Lead to Rome
TTITLE11=The Memory of James
EXTD=YEAR: 2002
EXTT0=
EXTT1=
EXTT2=
EXTT3=
EXTT4=
EXTT5=
EXTT6=
EXTT7=
EXTT8=
EXTT9=
EXTT10=
EXTT11=
PLAYORDER=
